<mxfile host="Electron" agent="Mozilla/5.0 (Windows NT 10.0; Win64; x64) AppleWebKit/537.36 (KHTML, like Gecko) draw.io/26.2.15 Chrome/134.0.6998.205 Electron/35.2.1 Safari/537.36" version="26.2.15">
  <diagram name="Page-1" id="GG1SxocVPvn_eUk72Hho">
    <mxGraphModel dx="772" dy="509" grid="1" gridSize="10" guides="1" tooltips="1" connect="1" arrows="1" fold="1" page="1" pageScale="1" pageWidth="850" pageHeight="1100" math="0" shadow="0">
      <root>
        <mxCell id="0" />
        <mxCell id="1" parent="0" />
        <mxCell id="Y_2wrBofRGL3zR3UtONp-7" style="edgeStyle=orthogonalEdgeStyle;rounded=0;orthogonalLoop=1;jettySize=auto;html=1;exitX=0.5;exitY=1;exitDx=0;exitDy=0;entryX=0.5;entryY=0;entryDx=0;entryDy=0;" edge="1" parent="1" source="Y_2wrBofRGL3zR3UtONp-1" target="Y_2wrBofRGL3zR3UtONp-2">
          <mxGeometry relative="1" as="geometry" />
        </mxCell>
        <mxCell id="Y_2wrBofRGL3zR3UtONp-1" value="basePrice_calculator(basePrice, weight, height, maxW, maxH)" style="rounded=1;whiteSpace=wrap;html=1;" vertex="1" parent="1">
          <mxGeometry x="246" y="70" width="350" height="50" as="geometry" />
        </mxCell>
        <mxCell id="Y_2wrBofRGL3zR3UtONp-5" style="edgeStyle=orthogonalEdgeStyle;rounded=0;orthogonalLoop=1;jettySize=auto;html=1;exitX=1;exitY=0.5;exitDx=0;exitDy=0;entryX=0;entryY=0.5;entryDx=0;entryDy=0;" edge="1" parent="1" source="Y_2wrBofRGL3zR3UtONp-2" target="Y_2wrBofRGL3zR3UtONp-4">
          <mxGeometry relative="1" as="geometry" />
        </mxCell>
        <mxCell id="Y_2wrBofRGL3zR3UtONp-15" value="T" style="edgeLabel;html=1;align=center;verticalAlign=middle;resizable=0;points=[];" vertex="1" connectable="0" parent="Y_2wrBofRGL3zR3UtONp-5">
          <mxGeometry x="-0.2019" y="1" relative="1" as="geometry">
            <mxPoint x="1" y="-14" as="offset" />
          </mxGeometry>
        </mxCell>
        <mxCell id="Y_2wrBofRGL3zR3UtONp-10" style="edgeStyle=orthogonalEdgeStyle;rounded=0;orthogonalLoop=1;jettySize=auto;html=1;exitX=0.5;exitY=1;exitDx=0;exitDy=0;entryX=0.5;entryY=0;entryDx=0;entryDy=0;" edge="1" parent="1" source="Y_2wrBofRGL3zR3UtONp-2" target="Y_2wrBofRGL3zR3UtONp-9">
          <mxGeometry relative="1" as="geometry" />
        </mxCell>
        <mxCell id="Y_2wrBofRGL3zR3UtONp-16" value="F" style="edgeLabel;html=1;align=center;verticalAlign=middle;resizable=0;points=[];" vertex="1" connectable="0" parent="Y_2wrBofRGL3zR3UtONp-10">
          <mxGeometry x="-0.4167" relative="1" as="geometry">
            <mxPoint x="9" as="offset" />
          </mxGeometry>
        </mxCell>
        <mxCell id="Y_2wrBofRGL3zR3UtONp-2" value="weight &amp;lt; 0&lt;div&gt;or&lt;/div&gt;&lt;div&gt;height &amp;lt; 0&lt;/div&gt;" style="rhombus;whiteSpace=wrap;html=1;" vertex="1" parent="1">
          <mxGeometry x="368.5" y="160" width="105" height="110" as="geometry" />
        </mxCell>
        <mxCell id="Y_2wrBofRGL3zR3UtONp-3" value="return STATUS_ERROR" style="rounded=1;whiteSpace=wrap;html=1;" vertex="1" parent="1">
          <mxGeometry x="570" y="270" width="120" height="55" as="geometry" />
        </mxCell>
        <mxCell id="Y_2wrBofRGL3zR3UtONp-6" style="edgeStyle=orthogonalEdgeStyle;rounded=0;orthogonalLoop=1;jettySize=auto;html=1;exitX=0.5;exitY=1;exitDx=0;exitDy=0;entryX=0.5;entryY=0;entryDx=0;entryDy=0;" edge="1" parent="1" source="Y_2wrBofRGL3zR3UtONp-4" target="Y_2wrBofRGL3zR3UtONp-3">
          <mxGeometry relative="1" as="geometry" />
        </mxCell>
        <mxCell id="Y_2wrBofRGL3zR3UtONp-4" value="output(ERROR)" style="shape=parallelogram;perimeter=parallelogramPerimeter;whiteSpace=wrap;html=1;fixedSize=1;" vertex="1" parent="1">
          <mxGeometry x="570" y="192.5" width="120" height="45" as="geometry" />
        </mxCell>
        <mxCell id="Y_2wrBofRGL3zR3UtONp-14" style="edgeStyle=orthogonalEdgeStyle;rounded=0;orthogonalLoop=1;jettySize=auto;html=1;exitX=1;exitY=0.5;exitDx=0;exitDy=0;entryX=0;entryY=0.5;entryDx=0;entryDy=0;" edge="1" parent="1" source="Y_2wrBofRGL3zR3UtONp-8" target="Y_2wrBofRGL3zR3UtONp-12">
          <mxGeometry relative="1" as="geometry" />
        </mxCell>
        <mxCell id="Y_2wrBofRGL3zR3UtONp-8" value="&lt;font style=&quot;font-size: 11px;&quot;&gt;basePrice&amp;nbsp;← basePrice +&amp;nbsp;&lt;/font&gt;&lt;div&gt;&lt;font style=&quot;font-size: 11px;&quot;&gt;(basePrice * ((weight - maxW) / (maxW / 10)))&amp;nbsp;&lt;/font&gt;&lt;/div&gt;" style="rounded=0;whiteSpace=wrap;html=1;" vertex="1" parent="1">
          <mxGeometry x="300" y="440" width="242" height="60" as="geometry" />
        </mxCell>
        <mxCell id="Y_2wrBofRGL3zR3UtONp-11" style="edgeStyle=orthogonalEdgeStyle;rounded=0;orthogonalLoop=1;jettySize=auto;html=1;exitX=0.5;exitY=1;exitDx=0;exitDy=0;entryX=0.5;entryY=0;entryDx=0;entryDy=0;" edge="1" parent="1" source="Y_2wrBofRGL3zR3UtONp-9" target="Y_2wrBofRGL3zR3UtONp-8">
          <mxGeometry relative="1" as="geometry" />
        </mxCell>
        <mxCell id="Y_2wrBofRGL3zR3UtONp-18" value="T" style="edgeLabel;html=1;align=center;verticalAlign=middle;resizable=0;points=[];" vertex="1" connectable="0" parent="Y_2wrBofRGL3zR3UtONp-11">
          <mxGeometry x="0.0095" y="-2" relative="1" as="geometry">
            <mxPoint x="11" y="-3" as="offset" />
          </mxGeometry>
        </mxCell>
        <mxCell id="Y_2wrBofRGL3zR3UtONp-13" style="edgeStyle=orthogonalEdgeStyle;rounded=0;orthogonalLoop=1;jettySize=auto;html=1;exitX=1;exitY=0.5;exitDx=0;exitDy=0;entryX=0.5;entryY=0;entryDx=0;entryDy=0;" edge="1" parent="1" source="Y_2wrBofRGL3zR3UtONp-9" target="Y_2wrBofRGL3zR3UtONp-12">
          <mxGeometry relative="1" as="geometry" />
        </mxCell>
        <mxCell id="Y_2wrBofRGL3zR3UtONp-17" value="F" style="edgeLabel;html=1;align=center;verticalAlign=middle;resizable=0;points=[];" vertex="1" connectable="0" parent="Y_2wrBofRGL3zR3UtONp-13">
          <mxGeometry x="-0.5992" y="1" relative="1" as="geometry">
            <mxPoint y="-16" as="offset" />
          </mxGeometry>
        </mxCell>
        <mxCell id="Y_2wrBofRGL3zR3UtONp-9" value="weight&lt;div&gt;&lt;span style=&quot;background-color: transparent; color: light-dark(rgb(0, 0, 0), rgb(255, 255, 255));&quot;&gt;&amp;gt;&lt;/span&gt;&lt;div&gt;maxW&lt;/div&gt;&lt;/div&gt;" style="rhombus;whiteSpace=wrap;html=1;" vertex="1" parent="1">
          <mxGeometry x="374" y="310" width="94" height="95" as="geometry" />
        </mxCell>
        <mxCell id="Y_2wrBofRGL3zR3UtONp-12" value="return&lt;div&gt;basePrice&lt;/div&gt;" style="rounded=1;whiteSpace=wrap;html=1;" vertex="1" parent="1">
          <mxGeometry x="570" y="440" width="120" height="60" as="geometry" />
        </mxCell>
      </root>
    </mxGraphModel>
  </diagram>
</mxfile>
